<svg width="720" height="220" viewBox="0 0 360 110" fill="none" xmlns="http://www.w3.org/2000/svg" role="img" aria-label="RIFT">
  <!-- Icon (slip-fault), 80px, left -->
  <g transform="translate(15,15) scale(2.5)">
    <mask id="riftWm">
      <rect x="1" y="1" width="30" height="30" rx="8" fill="#fff"/>
      <path d="M16 -2 L13.4 13 L18.6 18 L15.4 34" stroke="#000" stroke-width="3" stroke-linejoin="round"/>
    </mask>
    <rect x="1" y="1" width="30" height="30" rx="8" fill="#00ff66" mask="url(#riftWm)"/>
  </g>

  <!-- Wordmark "RIFT" as geometric paths. Swap fill (#e8f6ee) for dark-on-light. -->
  <g transform="translate(120,16)" fill="#e8f6ee">
    <!-- R -->
    <rect x="0" y="18" width="13" height="70"/>
    <rect x="0" y="18" width="40" height="13"/>
    <rect x="33" y="18" width="13" height="32"/>
    <rect x="0" y="42" width="40" height="13"/>
    <path d="M24 52 L37 52 L46 88 L33 88 Z"/>
    <!-- I -->
    <rect x="62" y="18" width="13" height="70"/>
    <!-- F -->
    <rect x="91" y="18" width="13" height="70"/>
    <rect x="91" y="18" width="40" height="13"/>
    <rect x="91" y="44" width="30" height="12"/>
    <!-- T -->
    <rect x="147" y="18" width="52" height="13"/>
    <rect x="166" y="18" width="13" height="70"/>
  </g>
</svg>
